<?xml version="1.0" encoding="UTF-8"?>
<svg width="175px" height="51px" viewBox="0 0 175 51" version="1.1" xmlns="http://www.w3.org/2000/svg" xmlns:xlink="http://www.w3.org/1999/xlink">
    <!-- Generator: Sketch 49 (51002) - http://www.bohemiancoding.com/sketch -->
    <title>Instagram Logo</title>
    <desc>Created with Sketch.</desc>
    <defs></defs>
    <g id="Symbols" stroke="none" stroke-width="1" fill="none" fill-rule="evenodd">
        <g id="Instagram-Logo" fill="#1B1B1B">
            <g>
                <path d="M9.16339522,0.178888118 C5.51929193,1.7333075 1.51317576,6.11918692 0.24792871,11.6283129 C-1.35445782,18.6067221 5.31371176,21.558105 5.86062693,20.5917041 C6.5043386,19.454726 4.66580458,19.0702406 4.28730932,15.449365 C3.7982323,10.7726804 5.93344906,5.54703609 8.62097524,3.2541607 C9.12024136,2.82817533 9.09656668,3.42107617 9.09656668,4.51777489 C9.09656668,6.47895537 8.99018044,24.0844179 8.99018044,27.7586943 C8.99018044,32.7304562 8.7884961,34.300438 8.42618353,35.851806 C8.05937577,37.4239239 7.46930674,38.486141 7.91612894,38.8953432 C8.41569475,39.3530639 10.5485141,38.264299 11.7831938,36.5097031 C13.2636108,34.4054087 13.7817567,31.8781803 13.874957,29.1336872 C13.9873369,25.8252822 13.982542,20.5755313 13.9873369,17.5811227 C13.9915324,14.8347987 14.0325885,6.79295174 13.9399875,1.95850607 C13.9172119,0.772704396 10.6875654,-0.471380375 9.16339522,0.178888118" id="Fill-1"></path>
                <path d="M136.224361,23.2446328 C136.108961,25.8083095 135.556982,27.8123359 134.87194,29.2258388 C133.54572,31.9623442 130.793776,32.8119594 129.625349,28.8783653 C128.988586,26.7341993 128.958853,23.1529216 129.416627,20.1606539 C129.882644,17.1123909 131.183841,14.8102274 133.338471,15.017864 C135.463661,15.2230792 136.4584,18.0385834 136.224361,23.2446328 L136.224361,23.2446328 Z M100.396692,39.1509299 C100.367842,43.4108102 99.7157712,47.145848 98.3174259,48.2306434 C96.3341305,49.7688494 93.6684427,48.6150436 94.2204211,45.5065478 C94.7088116,42.7558165 97.0185838,39.9466686 100.402285,36.514308 C100.402285,36.514308 100.409351,37.2970315 100.396692,39.1509299 L100.396692,39.1509299 Z M99.855017,23.2195106 C99.7337289,25.5546659 99.1449519,27.900415 98.5025962,29.2258388 C97.1766704,31.9623442 94.4047083,32.8177103 93.2560044,28.8783653 C92.4705759,26.1866561 92.6586901,22.7031432 93.0472829,20.5081274 C93.5515704,17.6602368 94.7738715,15.0181667 96.9691265,15.0181667 C99.1034432,15.0181667 100.155882,17.4256619 99.855017,23.2195106 L99.855017,23.2195106 Z M79.1003333,23.1840974 C78.9702136,25.6569709 78.5009583,27.7242568 77.7479125,29.2258388 C76.3854826,31.9435782 73.6900615,32.8053005 72.5013207,28.8783653 C71.6443558,26.0465165 71.9360948,22.185565 72.2925992,20.0998158 C72.8216154,17.0046378 74.1463636,14.8102274 76.2144428,15.0181667 C78.3387503,15.2315542 79.3714651,18.0385834 79.1003333,23.1840974 L79.1003333,23.1840974 Z M174.21402,26.0725468 C173.694718,26.0725468 173.457736,26.6231168 173.261673,27.5493093 C172.581635,30.7707037 171.86686,31.4977346 170.94513,31.4977346 C169.915359,31.4977346 168.990096,29.9029279 168.75223,26.7099852 C168.565293,24.199277 168.595321,19.5773947 168.834364,14.9797267 C168.883233,14.0350708 168.629764,13.1004033 166.165438,12.1799617 C165.105051,11.7840598 163.563632,11.2011033 162.796162,13.1058515 C160.627696,18.4871511 159.779268,22.7594411 159.579673,24.4946901 C159.569369,24.5845852 159.462212,24.6030485 159.443371,24.3929905 C159.316195,23.0030964 159.031816,20.4769517 158.996489,15.1701107 C158.989718,14.1346517 158.776287,13.2532554 157.664676,12.5316727 C156.943424,12.0634309 154.753173,11.2353059 153.964507,12.2205205 C153.281231,13.0262474 152.489915,15.1946275 151.667688,17.7649631 C150.999426,19.8540418 150.533997,21.2672421 150.533997,21.2672421 C150.533997,21.2672421 150.542829,15.6304828 150.550778,13.4923704 C150.55431,12.6857355 150.016168,12.416958 149.85396,12.368227 C149.123582,12.150602 147.684611,11.7864812 147.073755,11.7864812 C146.32012,11.7864812 146.135539,12.2193097 146.135539,12.8503919 C146.135539,12.9333255 146.016606,20.2717365 146.016606,25.4033273 C146.016606,25.6264005 146.0169,25.8694503 146.017783,26.1279367 C145.600929,28.4863982 144.249097,31.6881186 142.778921,31.6881186 C141.306979,31.6881186 140.612516,30.3496796 140.612516,24.2319662 C140.612516,20.6634009 140.71673,19.1112717 140.767953,16.5300398 C140.797687,15.0432889 140.855092,13.9015901 140.851854,13.6424984 C140.840962,12.8479705 139.504732,12.4475284 138.882984,12.2995192 C138.258291,12.150602 137.715439,12.092488 137.291519,12.1173075 C136.691556,12.1524181 136.267047,12.5567949 136.267047,13.1134185 C136.267047,13.412161 136.270286,13.9793782 136.270286,13.9793782 C135.497516,12.7308344 134.254608,11.8618479 133.42767,11.6100204 C131.200327,10.9299045 128.87613,11.5328376 127.123046,14.0547449 C125.729705,16.0587712 124.889815,18.3285482 124.559217,21.5895934 C124.317524,23.9737824 124.39642,26.391266 124.825933,28.4358511 C124.306926,30.7428574 123.343392,31.6881186 122.288304,31.6881186 C120.756601,31.6881186 119.646167,29.117783 119.775109,24.6720589 C119.860188,21.7481963 120.429241,19.6960442 121.051283,16.7273854 C121.316527,15.4618916 121.101035,14.799331 120.560538,14.164314 C120.064788,13.5819629 119.008522,13.2844311 117.490066,13.650368 C116.408482,13.9112758 114.86206,14.1918577 113.447228,14.4073639 C113.447228,14.4073639 113.532601,14.0571663 113.602666,13.4397046 C113.970651,10.2016629 110.548385,10.4643868 109.456498,11.4986351 C108.804722,12.1160968 108.361078,12.8443384 108.192688,14.1537203 C107.925678,16.2315999 109.573959,17.211669 109.573959,17.211669 C109.033167,19.7571851 107.707536,23.0817924 106.338924,25.4856555 C105.605896,26.7735474 105.045086,27.7278889 104.321185,28.7424632 C104.318535,28.3647219 104.316475,27.986678 104.315297,27.6107528 C104.298811,22.2597209 104.367993,18.0485717 104.398609,16.5303424 C104.428342,15.0435916 104.486337,13.9321605 104.483099,13.6730688 C104.474856,13.0922311 104.144846,12.8724873 103.458332,12.5946296 C102.851303,12.3488556 102.133584,12.178751 101.389075,12.1194262 C100.449387,12.0443623 99.8832783,12.5564923 99.8979977,13.1624522 C99.9009416,13.2768642 99.9009416,13.9793782 99.9009416,13.9793782 C99.1281718,12.7308344 97.8852635,11.8618479 97.0583262,11.6100204 C94.8309829,10.9302072 92.5067856,11.5328376 90.7537021,14.0547449 C89.3606557,16.0587712 88.4483458,18.8709459 88.1898727,21.5647739 C87.9490629,24.075482 87.9935155,26.2087516 88.3217587,28.006352 C87.9676093,29.8060712 86.9493195,31.6881186 85.7979661,31.6881186 C84.3260236,31.6881186 83.4884883,30.3496796 83.4884883,24.2319662 C83.4884883,20.6634009 83.5927018,19.1112717 83.6439254,16.5303424 C83.6736587,15.0435916 83.7310644,13.9015901 83.7278262,13.6428011 C83.7169338,12.8482732 82.3807044,12.4478311 81.7589559,12.2995192 C81.1083573,12.1448511 80.546664,12.0879478 80.1153849,12.1209396 C79.5463319,12.1642225 79.1462579,12.6881569 79.1462579,13.0789133 L79.1462579,13.9793782 C78.3734881,12.7308344 77.1305799,11.8618479 76.3036426,11.6100204 C74.0762992,10.9302072 71.765055,11.5425233 69.9990184,14.0547449 C68.8473706,15.6928344 67.9150422,17.5088981 67.435189,21.5290579 C67.296532,22.6907334 67.2352992,23.7788583 67.2432477,24.7955513 C66.7840016,27.6833953 64.7556648,31.0113322 63.0964913,31.0113322 C62.125598,31.0113322 61.2009237,29.0751055 61.2009237,24.948706 C61.2009237,19.4520863 61.5318164,11.6263649 61.5877502,10.8720931 C61.5877502,10.8720931 63.6840907,10.8354692 64.0900524,10.8306263 C65.1357204,10.8188219 66.0827682,10.8442468 67.4755202,10.7709989 C68.1741041,10.7343749 68.8470762,8.15677511 68.1261188,7.83775325 C67.7993476,7.69337618 65.4898698,7.56685707 64.5743215,7.54688037 C63.8044956,7.52902241 61.6613473,7.36587935 61.6613473,7.36587935 C61.6613473,7.36587935 61.853583,2.17133164 61.8983301,1.62257771 C61.9363062,1.16523232 61.3607767,0.929749383 61.0307671,0.7868857 C60.2282641,0.437898781 59.5102505,0.270820915 58.6591734,0.0904252485 C57.4833857,-0.158980841 56.9499537,0.0849770572 56.8457402,1.10530221 C56.6888311,2.65379925 56.6075799,7.18941849 56.6075799,7.18941849 C55.7447272,7.18941849 52.7973096,7.0159844 51.9341625,7.0159844 C51.1322482,7.0159844 50.266746,10.5618489 51.3754131,10.6054344 C52.6509985,10.6562842 54.873926,10.7004751 56.3476349,10.7458767 C56.3476349,10.7458767 56.2819862,18.7008413 56.2819862,21.1570675 C56.2819862,21.418278 56.2831638,21.6698029 56.2846357,21.9140634 C55.4735954,26.2602067 52.6168494,28.6080745 52.6168494,28.6080745 C53.230355,25.7326402 51.9771432,23.5733404 49.7197722,21.7454722 C48.8881247,21.0720152 47.24632,19.7968358 45.4093357,18.3993747 C45.4093357,18.3993747 46.4732558,17.3215409 47.4167709,15.1522527 C48.0853272,13.6155601 48.1141773,11.8576104 46.4732558,11.4698808 C43.7619377,10.8288103 41.5263514,12.8761195 40.8595615,15.0617522 C40.3429096,16.7552317 40.6184573,18.0113424 41.630565,19.3164869 C41.7044565,19.4118303 41.7845301,19.5092924 41.8672533,19.6073598 C41.2552196,20.8201877 40.4144461,22.4531317 39.7023203,23.7195335 C37.7257959,27.2354329 36.2326574,30.0164319 35.1042663,30.0164319 C34.2022599,30.0164319 34.2143298,27.1927554 34.2143298,24.549172 C34.2143298,22.2703146 34.3780098,18.8440077 34.5087183,15.2966298 C34.5519935,14.1234526 33.9814685,13.4551411 33.0250003,12.8497865 C32.4438774,12.4820336 31.2036186,11.7589376 30.4853107,11.7589376 C29.4102039,11.7589376 26.3082323,11.9093682 23.3773004,20.6261716 C23.0078428,21.7248901 22.2821751,23.7267978 22.2821751,23.7267978 L22.3448799,13.2444777 C22.3448799,12.9987038 22.2174097,12.7611021 21.925965,12.5985644 C21.4319811,12.3228254 20.1128263,11.7589376 18.9399825,11.7589376 C18.3812331,11.7589376 18.1021528,12.0262016 18.1021528,12.5589137 L18,28.9585748 C18,30.2049999 18.0314996,31.6584562 18.1513157,32.2940785 C18.2708374,32.9306089 18.4642507,33.4484897 18.7035885,33.7566152 C18.9429264,34.0641354 19.2196516,34.2987103 19.6756593,34.395567 C20.1001676,34.4854621 22.4252479,34.7923769 22.5459472,33.8788969 C22.6907864,32.7841131 22.6963798,31.6000395 23.9172089,27.1839778 C25.817781,20.3086631 28.2953546,16.9540906 29.4605443,15.7627528 C29.6642612,15.5545108 29.8968281,15.5421011 29.8856413,15.8829157 C29.8358897,17.3902486 29.6610229,21.1570675 29.5432675,24.3566692 C29.227683,32.9200152 30.7429006,34.5072549 32.9081281,34.5072549 C34.5646522,34.5072549 36.8997417,32.8149862 39.4029272,28.5311944 C40.9634806,25.8615807 42.4786982,23.2440275 43.5673469,21.3574399 C44.3259861,22.0796279 45.1773576,22.8566005 46.0281404,23.6868444 C48.0052535,25.6161094 48.6543802,27.4494258 48.2236898,29.1886095 C47.8942691,30.5182709 46.6537159,31.888491 44.4458022,30.5567109 C43.8022689,30.1680732 43.5276044,29.8678174 42.8805385,29.4298433 C42.5328657,29.1946631 42.0020832,29.1241393 41.6838493,29.3708212 C40.8572064,30.0115891 40.3844184,30.826699 40.1144642,31.8358251 C39.8518696,32.8177103 40.8083379,33.3368018 41.7998383,33.7908178 C42.653565,34.1815741 44.4884885,34.5357066 45.6586828,34.5759627 C50.2181719,34.7327495 53.87065,32.3125419 56.4132835,26.06952 C56.8684081,31.4614133 58.8054845,34.5120978 62.1709338,34.5120978 C64.4209451,34.5120978 66.6768442,31.5219488 67.6633401,28.5802282 C67.9465418,29.7794356 68.365751,30.8221589 68.9071315,31.7041605 C71.5003998,35.9286275 76.5312049,35.0193849 79.0582358,31.4320536 C79.8395428,30.3236494 79.9584758,29.925326 79.9584758,29.925326 C80.3270502,33.3125876 82.9800794,34.4960559 84.499124,34.4960559 C86.2003952,34.4960559 87.9570114,33.6691415 89.1881441,30.8194348 C89.3323944,31.128771 89.4898923,31.424184 89.6618152,31.7041605 C92.2550835,35.9286275 97.2858886,35.0193849 99.8129194,31.4320536 C99.9321468,31.263765 100.035477,31.1112157 100.125854,30.9741029 L100.20004,33.1990837 C100.20004,33.1990837 98.7584198,34.5587101 97.873488,35.3928887 C93.9737235,39.0676937 91.0112921,41.8550489 90.7934446,45.1009602 C90.5161306,49.2397695 93.7788384,50.7779755 96.251113,50.9795586 C98.8717594,51.1935514 101.120004,49.7037738 102.499803,47.6189326 C103.714156,45.7838002 104.509005,41.8341642 104.450716,37.9332592 C104.427459,36.3711417 104.389189,34.3849733 104.359161,32.2559412 C105.728068,30.6214838 107.270369,28.5554086 108.690499,26.1376224 C110.238099,23.5025139 111.896684,19.963611 112.745995,17.2095503 C112.745995,17.2095503 114.187027,17.2222627 115.724912,17.1187471 C116.216835,17.0857553 116.358142,17.1889682 116.267176,17.5597479 C116.157369,18.0077103 114.324212,25.2774135 115.997222,30.1202502 C117.142393,33.4354746 119.723886,34.5021094 121.254412,34.5021094 C123.04606,34.5021094 124.75999,33.1110046 125.678482,31.045232 C125.789172,31.2755695 125.904867,31.4983399 126.031159,31.7041605 C128.624428,35.9286275 133.637569,35.0139367 136.182264,31.4320536 C136.756616,30.6239052 137.082504,29.925326 137.082504,29.925326 C137.628594,33.4309345 140.280152,34.5139138 141.798902,34.5139138 C143.380946,34.5139138 144.882327,33.8471157 146.100507,30.8836024 C146.151436,32.1884442 146.231509,33.2553816 146.358097,33.5916561 C146.435226,33.7974767 146.884758,34.0556604 147.211823,34.1803634 C148.659037,34.7321441 150.135101,34.4712363 150.681192,34.3577323 C151.059481,34.2790362 151.354458,33.9669759 151.394789,33.161249 C151.500769,31.0455347 151.435709,27.4908926 152.059519,24.8488225 C153.106659,20.4152055 154.08344,18.6953931 154.546807,17.8439619 C154.806163,17.3669425 155.098785,17.2882464 155.109383,17.7931121 C155.131168,18.814648 155.180625,21.8144826 155.586293,25.8449335 C155.884214,28.8090522 156.282227,30.561251 156.588097,31.1157558 C157.460959,32.7014822 158.53901,32.7765462 159.416876,32.7765462 C159.975331,32.7765462 161.14317,32.6179433 161.038662,31.6088172 C160.987733,31.1169666 161.076933,28.0771785 162.109353,23.7092425 C162.783503,20.8568117 163.907478,18.2798172 164.312851,17.3372801 C164.462401,16.9898066 164.531876,17.2637295 164.529521,17.3170007 C164.444148,19.2813764 164.252502,25.7066099 165.030865,29.2206933 C166.085953,33.9812018 169.138173,34.5139138 170.201799,34.5139138 C172.472417,34.5139138 174.32942,32.7381061 174.954995,28.0653741 C175.105722,26.9409279 174.882576,26.0725468 174.21402,26.0725468 L174.21402,26.0725468 Z" id="Fill-3"></path>
            </g>
        </g>
    </g>
</svg>